<?xml version="1.0" encoding="UTF-8"?>
<svg width="19px" height="18px" viewBox="0 0 19 18" version="1.1" xmlns="http://www.w3.org/2000/svg" xmlns:xlink="http://www.w3.org/1999/xlink">
    <!-- Generator: Sketch 53.1 (72631) - https://sketchapp.com -->
    <title>s-daimond</title>
    <desc>Created with Sketch.</desc>
    <defs>
        <linearGradient x1="37.9573028%" y1="31.2514893%" x2="68.5082676%" y2="64.1763832%" id="linearGradient-1">
            <stop stop-color="#FF4F96" offset="0%"></stop>
            <stop stop-color="#F5255E" offset="100%"></stop>
        </linearGradient>
        <linearGradient x1="70.474398%" y1="73.8658042%" x2="31.0462694%" y2="30.8515628%" id="linearGradient-2">
            <stop stop-color="#CE0C37" offset="0%"></stop>
            <stop stop-color="#FF86AD" offset="100%"></stop>
        </linearGradient>
    </defs>
    <g id="Mobile" stroke="none" stroke-width="1" fill="none" fill-rule="evenodd">
        <g id="Artboard" transform="translate(-230.000000, -154.000000)" fill-rule="nonzero">
            <g id="S-daimond" transform="translate(232.000000, 154.000000)">
                <path d="M7.99526994,1.29946524 C7.0227565,3.24272408 6.020482,4.83332286 4.98844644,6.07126157 C3.95641088,7.30920029 2.76686982,8.30965575 1.41982326,9.07262796 C3.27951422,10.2572969 4.54351916,11.3264377 5.21183808,12.2800504 C6.21431645,13.7104694 7.52482271,15.7034619 7.83823433,16.8449198 C8.31857546,15.6121624 9.28514935,13.9510241 10.8753753,12.0822916 C11.935526,10.83647 13.1523622,9.83324873 14.5258841,9.07262796 C13.0010422,8.25698203 11.784206,7.32190337 10.8753753,6.26739198 C9.96654467,5.21288059 9.00650954,3.55690501 7.99526994,1.29946524 Z" id="Path-5" fill="url(#linearGradient-1)"></path>
                <path d="M7.99515003,1.28649912 C7.02793997,3.23299476 6.03113116,4.82624293 5.00472358,6.06624363 C3.978316,7.30624433 2.79526184,8.30836621 1.45556111,9.07260927 C3.30511065,10.2592514 4.56222261,11.3301731 5.226897,12.2853742 C6.22390858,13.7181758 7.52726828,15.7144879 7.83897077,16.8578471 C8.31669246,15.6230363 9.27799535,13.9591312 10.8595494,12.087286 C11.9139187,10.8393892 13.1241192,9.83449698 14.4901509,9.07260927 C12.9736244,8.25560475 11.7634239,7.31896857 10.8595494,6.26270073 C9.95567483,5.20643288 9.00087505,3.54769901 7.99515003,1.28649912 Z M7.16267837,0.962250071 C7.48821748,0.307107519 8.5451684,0.325504344 8.84137264,0.991468688 C9.81934698,3.19027593 10.739859,4.78944311 11.5844632,5.77644764 C12.4160863,6.74828245 13.5401261,7.61823445 14.9629106,8.38473695 C15.5399149,8.69558886 15.5463953,9.43516455 14.9749077,9.75390489 C13.7052919,10.4620178 12.5768644,11.3990097 11.5878039,12.5696103 C10.1883676,14.2259104 9.20174578,15.8202283 8.69936728,17.1187717 C8.4045429,17.8808312 7.16836041,17.8298112 6.95488866,17.0467732 C6.72243099,16.1940928 5.78976823,14.6293973 4.45257867,12.7077271 C3.86161721,11.8584586 2.68353462,10.8548614 0.92189694,9.72462207 C0.403774644,9.39220288 0.425087709,8.70257207 0.962966245,8.39573493 C2.20699947,7.68606617 3.30913583,6.75248679 4.27115553,5.59027294 C5.25484966,4.40187426 6.22035903,2.85865353 7.16267837,0.962250071 Z" id="Path-5" fill="url(#linearGradient-2)"></path>
            </g>
        </g>
    </g>
</svg>