<?xml version="1.0" encoding="UTF-8"?>
<svg width="19px" height="18px" viewBox="0 0 19 18" version="1.1" xmlns="http://www.w3.org/2000/svg" xmlns:xlink="http://www.w3.org/1999/xlink">
    <!-- Generator: Sketch 53.1 (72631) - https://sketchapp.com -->
    <title>s-clubs</title>
    <desc>Created with Sketch.</desc>
    <defs>
        <linearGradient x1="32.6300821%" y1="34.041881%" x2="63.2077777%" y2="75.8410666%" id="linearGradient-1">
            <stop stop-color="#212121" offset="0%"></stop>
            <stop stop-color="#1F183E" offset="100%"></stop>
        </linearGradient>
        <linearGradient x1="29.0152978%" y1="20.4460721%" x2="74.692291%" y2="107.78457%" id="linearGradient-2">
            <stop stop-color="#FFFFFF" stop-opacity="0.8" offset="0%"></stop>
            <stop stop-color="#FD11FF" stop-opacity="0.8" offset="100%"></stop>
        </linearGradient>
        <filter x="-197.6%" y="-356.2%" width="495.2%" height="812.3%" filterUnits="objectBoundingBox" id="filter-3">
            <feGaussianBlur stdDeviation="2" in="SourceGraphic"></feGaussianBlur>
        </filter>
    </defs>
    <g id="Mobile" stroke="none" stroke-width="1" fill="none" fill-rule="evenodd">
        <g id="Artboard" transform="translate(-233.000000, -111.000000)" fill-rule="nonzero">
            <g id="S-spade" transform="translate(235.000000, 112.000000)">
                <path d="M6.63150619,11.8478434 C5.78186164,12.3693124 4.67623492,12.6280369 3.73064345,12.6280369 C1.89560785,12.6280369 0,11.4926651 0,9.27969404 C1.43983241e-16,7.06672293 1.74635773,5.69188769 3.73064345,5.69188769 C3.95084822,5.69188769 4.17479924,5.71658713 4.39895314,5.76320743 C3.90361276,5.17157172 3.60339963,4.43185864 3.60339963,3.60695517 C3.60339963,1.53466005 5.4980393,1.77635684e-14 7.62126204,1.77635684e-14 C9.74448478,1.77635684e-14 11.3958026,1.53466005 11.3958026,3.60695517 C11.3958026,4.3484295 11.1843955,5.021074 10.8156067,5.57921779 C10.9588605,5.56270269 11.1037359,5.5541544 11.2498006,5.5541544 C13.5626614,5.5541544 15,7.47896267 15,9.27969404 C15,11.0804254 13.153696,12.7099222 11.3958026,12.7099222 C10.4082736,12.7099222 9.11849669,12.3765883 8.1777067,11.7337459 C8.41899826,12.3416669 8.66013446,13.0640379 9.01923835,13.7123965 C9.45966788,14.5075877 10.0088515,15.2701222 10.6667892,16 L4.30366733,16 C5.00940106,15.174001 5.53277584,14.4114665 5.87379165,13.7123965 C6.14266258,13.1612208 6.3678631,12.4628398 6.63150619,11.8478434 Z" id="Combined-Shape" fill="url(#linearGradient-1)"></path>
                <path d="M8.58184638,13.9546531 C8.44202832,13.7022129 8.31329091,13.4303373 8.18263122,13.1194039 C8.06439189,12.8380275 7.71536095,11.9242168 7.71389595,11.920524 C7.53099713,11.4597197 8.05251381,11.0426234 8.45979274,11.3209173 C9.26227842,11.8692562 10.4349908,12.2099222 11.3958026,12.2099222 C12.9309999,12.2099222 14.5,10.7534124 14.5,9.27969404 C14.5,7.56639858 13.111621,6.0541544 11.2498006,6.0541544 C11.1241686,6.0541544 10.9984266,6.06145301 10.8728703,6.07592785 C10.4508264,6.12458347 10.1642419,5.65803522 10.3984443,5.30358126 C10.722314,4.81342024 10.8958026,4.23375935 10.8958026,3.60695517 C10.8958026,1.83207338 9.49008843,0.5 7.62126204,0.5 C5.69491821,0.5 4.10339963,1.88401239 4.10339963,3.60695517 C4.10339963,4.28521967 4.34234304,4.91671529 4.78232641,5.44223245 C5.0867095,5.80578833 4.76135999,6.34928185 4.29714017,6.25273181 C4.10276098,6.21230416 3.91304045,6.19188769 3.73064345,6.19188769 C1.89758908,6.19188769 0.5,7.4582255 0.5,9.27969404 C0.5,11.0007559 1.9145339,12.1280369 3.73064345,12.1280369 C4.64126289,12.1280369 5.64186913,11.8685709 6.36996302,11.4217035 C6.78559895,11.1666072 7.28320875,11.5966241 7.09105889,12.0448493 C7.01242323,12.2282815 6.93930026,12.4129852 6.82374216,12.7153329 C6.78452901,12.8180603 6.78452901,12.8180603 6.74510388,12.921324 C6.56365586,13.395935 6.45375385,13.6639282 6.32317435,13.9316114 C6.08060378,14.4288723 5.75447122,14.9513074 5.34500942,15.5 L9.59919624,15.5 C9.21440836,14.9994793 8.87522722,14.4843493 8.58184638,13.9546531 Z M3.73064345,13.1280369 C1.40576024,13.1280369 -0.5,11.6092841 -0.5,9.27969404 C-0.5,6.97747542 1.22150364,5.32664952 3.45269428,5.19975102 C3.22446905,4.7058044 3.10339963,4.16766575 3.10339963,3.60695517 C3.10339963,1.29825945 5.17127369,-0.5 7.62126204,-0.5 C10.0306985,-0.5 11.8958026,1.26739731 11.8958026,3.60695517 C11.8958026,4.12011523 11.8059163,4.61341636 11.6333372,5.07073497 C13.8722181,5.26566174 15.5,7.15200536 15.5,9.27969404 C15.5,11.3230029 13.4673487,13.2099222 11.3958026,13.2099222 C10.6717155,13.2099222 9.86405034,13.0539528 9.12229324,12.7740116 C9.23370467,13.0362036 9.34211236,13.2633788 9.45663031,13.4701398 C9.87826901,14.2314044 10.4052018,14.963044 11.0381711,15.6652232 C11.3281368,15.9868944 11.0998625,16.5 10.6667892,16.5 L4.30366733,16.5 C3.87686282,16.5 3.64627703,15.9996992 3.92352435,15.6752057 C4.603653,14.8791753 5.10369148,14.1506407 5.42440896,13.4931815 C5.51559631,13.3062507 5.59903509,13.1098039 5.71683785,12.8082815 C5.07677028,13.01669 4.38676471,13.1280369 3.73064345,13.1280369 Z" id="Combined-Shape" fill="url(#linearGradient-2)"></path>
                <ellipse id="Oval" fill="#371360" filter="url(#filter-3)" transform="translate(12.612303, 10.632459) rotate(-43.000000) translate(-12.612303, -10.632459) " cx="12.6123026" cy="10.632459" rx="1.5182645" ry="1"></ellipse>
            </g>
        </g>
    </g>
</svg>