<?xml version="1.0" encoding="UTF-8"?>
<svg width="20px" height="18px" viewBox="0 0 20 18" version="1.1" xmlns="http://www.w3.org/2000/svg" xmlns:xlink="http://www.w3.org/1999/xlink">
    <!-- Generator: Sketch 53.1 (72631) - https://sketchapp.com -->
    <title>s-spade</title>
    <desc>Created with Sketch.</desc>
    <defs>
        <linearGradient x1="77.4148574%" y1="83.9211897%" x2="16.9780776%" y2="13.1863737%" id="linearGradient-1">
            <stop stop-color="#DF59FF" offset="0%"></stop>
            <stop stop-color="#CACACA" offset="100%"></stop>
            <stop stop-color="#261349" offset="100%"></stop>
        </linearGradient>
    </defs>
    <g id="Mobile" stroke="none" stroke-width="1" fill="none" fill-rule="evenodd">
        <g id="Artboard" transform="translate(-199.000000, -128.000000)" fill-rule="nonzero">
            <g id="S-spade" transform="translate(201.000000, 129.000000)">
                <path d="M8.73503663,10.6028328 C9.45738672,11.2841564 10.6679178,12 11.7152915,12 C13.0636095,12 14.9333333,10.916006 14.9333333,8.81506311 C14.9333333,6.71412025 11.840753,5.10027778 10.568489,3.88380492 C9.7203131,3.07282301 8.94706229,2.1115547 8.2487366,1 C7.28731653,2.17989785 6.37859644,3.14116616 5.52257633,3.88380492 C4.23854616,4.99776306 1.06666667,6.73162821 1.06666667,8.81506311 C1.06666667,10.898498 2.63385679,12 4.07920472,12 C5.10882065,12 6.54741742,11.3679517 7.46076948,10.7467439 C7.16011158,11.9620246 6.90369021,12.7415195 6.69150537,13.0852285 C6.30981825,13.7035069 5.85709423,14.3417641 5.33333333,15 L10.6666667,15 C10.0380245,14.2159282 9.57493338,13.5276101 9.2773933,12.9350459 C9.10925165,12.6001843 8.9284661,11.82278 8.73503663,10.6028328 Z M11.5193219,14.3991533 C12.0477678,15.0582556 11.5461687,16 10.6666667,16 L5.33333333,16 C4.45562018,16 3.95353728,15.0616259 4.47834995,14.4020681 C4.93933568,13.8227248 5.34085198,13.2621452 5.68305625,12.7207741 C5.11815529,12.897195 4.56564517,13 4.07920472,13 C1.8499852,13 2.36847579e-16,11.2684893 0,8.81506311 C0,7.29205913 0.99975995,6.0600581 2.88061376,4.60438689 C3.04302333,4.47869135 4.52836378,3.38385768 4.79810254,3.14984628 C5.60538935,2.44948601 6.47445161,1.53016882 7.40109461,0.392950947 C7.86076176,-0.171173206 8.78355176,-0.119174889 9.16783497,0.492505044 C9.82352619,1.53619664 10.5446497,2.43266282 11.330127,3.18369551 C11.5076156,3.35340096 11.7463886,3.55005405 12.1080824,3.82807848 C12.1393084,3.85208103 12.9232653,4.44656191 13.1659709,4.63647223 C15.0479616,6.1090769 16,7.28488207 16,8.81506311 C16,11.2521311 13.9168679,13 11.7152915,13 C11.2819264,13 10.8291031,12.9157685 10.3798796,12.7665131 C10.6445371,13.2360158 11.0244314,13.7819028 11.5193219,14.3991533 Z" id="Combined-Shape" fill="url(#linearGradient-1)"></path>
                <path d="M8.73503663,10.6028328 C8.9284661,11.82278 9.10925165,12.6001843 9.2773933,12.9350459 C9.57493338,13.5276101 10.0380245,14.2159282 10.6666667,15 L5.33333333,15 C5.85709423,14.3417641 6.30981825,13.7035069 6.69150537,13.0852285 C6.90369021,12.7415195 7.16011158,11.9620246 7.46076948,10.7467439 C6.54741742,11.3679517 5.10882065,12 4.07920472,12 C2.63385679,12 1.06666667,10.898498 1.06666667,8.81506311 C1.06666667,6.73162821 4.23854616,4.99776306 5.52257633,3.88380492 C6.37859644,3.14116616 7.28731653,2.17989785 8.2487366,1 C8.94706229,2.1115547 9.7203131,3.07282301 10.568489,3.88380492 C11.840753,5.10027778 14.9333333,6.71412025 14.9333333,8.81506311 C14.9333333,10.916006 13.0636095,12 11.7152915,12 C10.6679178,12 9.45738672,11.2841564 8.73503663,10.6028328 Z" id="Combined-Shape" fill="#323232"></path>
            </g>
        </g>
    </g>
</svg>